<?xml version="1.0" standalone="no"?>
<!DOCTYPE svg PUBLIC "-//W3C//DTD SVG 20010904//EN"
 "http://www.w3.org/TR/2001/REC-SVG-20010904/DTD/svg10.dtd">
<svg version="1.0" xmlns="http://www.w3.org/2000/svg"
 width="128.000000pt" height="128.000000pt" viewBox="0 0 128.000000 128.000000"
 preserveAspectRatio="xMidYMid meet">

<g transform="translate(0.000000,128.000000) scale(0.100000,-0.100000)"
fill="#000000" stroke="none">
<path d="M0 640 l0 -640 640 0 640 0 0 640 0 640 -640 0 -640 0 0 -640z m1100
389 c9 -16 8 -25 -6 -40 -16 -17 -33 -19 -215 -19 -166 0 -200 2 -213 16 -9 8
-16 21 -16 28 0 32 24 36 232 36 200 0 208 -1 218 -21z m0 -368 c13 -25 13
-27 -6 -45 -14 -14 -69 -16 -454 -16 -385 0 -440 2 -454 16 -9 8 -16 19 -16
24 0 5 7 16 16 24 14 14 69 16 459 16 429 0 445 -1 455 -19z m-6 -370 c14 -15
15 -24 6 -40 -11 -21 -16 -21 -368 -21 -265 0 -361 3 -370 12 -17 17 -15 45 6
57 10 7 147 11 363 11 328 0 347 -1 363 -19z"/>
</g>
</svg>
