<?xml version="1.0" standalone="no"?>
<!DOCTYPE svg PUBLIC "-//W3C//DTD SVG 20010904//EN"
 "http://www.w3.org/TR/2001/REC-SVG-20010904/DTD/svg10.dtd">
<svg version="1.0" xmlns="http://www.w3.org/2000/svg"
 width="1080.000000pt" height="1080.000000pt" viewBox="0 0 1080.000000 1080.000000"
 preserveAspectRatio="xMidYMid meet">

<g transform="translate(0.000000,1080.000000) scale(0.100000,-0.100000)"
fill="#000000" stroke="none">
<path d="M0 5400 l0 -5400 5400 0 5400 0 0 5400 0 5400 -5400 0 -5400 0 0
-5400z m4707 1205 c37 -82 164 -373 283 -645 198 -451 220 -495 242 -498 14
-2 38 -16 54 -33 l28 -29 -28 -29 -28 -29 26 -51 26 -51 94 0 93 0 22 52 21
52 -26 27 -27 28 24 30 c15 18 35 31 54 33 28 3 35 16 265 539 129 295 257
586 283 647 l49 112 188 0 187 0 241 -547 c132 -302 265 -604 295 -673 l54
-125 217 -3 c283 -3 288 -21 7 -24 l-209 -3 31 -72 31 -73 136 0 c85 0 130 -4
121 -9 -12 -8 -12 -12 -2 -25 12 -14 1 -16 -108 -16 -66 0 -121 -2 -121 -4 0
-3 61 -142 135 -311 74 -169 135 -311 135 -316 0 -6 -77 -8 -186 -7 l-185 3
-129 315 -128 315 -517 0 -516 0 -95 -229 c-52 -126 -94 -231 -94 -233 0 -2
241 -3 535 -3 l535 0 0 -367 c0 -518 -16 -698 -80 -894 -133 -407 -441 -662
-891 -738 -384 -66 -802 -17 -1082 124 -382 194 -582 548 -617 1092 -5 87 -10
299 -10 471 l0 312 561 0 c529 0 560 1 555 18 -4 9 -46 114 -94 232 l-88 215
-516 3 -516 2 -107 -262 c-59 -145 -118 -288 -130 -318 l-23 -55 -191 -3
c-105 -1 -191 0 -191 4 0 3 61 145 135 314 74 170 135 311 135 314 0 3 -55 6
-122 6 -103 1 -120 3 -106 14 13 10 15 15 6 24 -9 9 19 12 119 12 l130 0 28
63 c15 34 29 68 32 75 4 9 -41 12 -206 12 -134 0 -211 4 -211 10 0 6 79 10
216 10 l215 0 24 53 c26 58 89 200 375 855 l194 442 189 -2 188 -3 66 -150z
m731 -1167 c7 -7 12 -24 12 -38 0 -14 -5 -31 -12 -38 -7 -7 -24 -12 -38 -12
-14 0 -31 5 -38 12 -7 7 -12 24 -12 38 0 14 5 31 12 38 7 7 24 12 38 12 14 0
31 -5 38 -12z m-2189 -170 c39 -24 71 -46 71 -49 0 -14 -132 -89 -156 -89 -31
0 -296 82 -288 89 7 8 266 89 286 90 10 1 49 -18 87 -41z m4532 1 c74 -22 137
-44 142 -48 9 -9 -250 -91 -284 -91 -13 0 -55 20 -93 44 l-69 44 42 27 c86 53
106 65 117 65 7 0 72 -18 145 -41z"/>
<path d="M4243 5928 l-209 -513 225 -3 c215 -3 598 14 605 27 2 3 -31 92 -74
196 -42 105 -132 325 -199 490 -68 165 -126 304 -130 308 -4 4 -102 -223 -218
-505z"/>
<path d="M6322 6368 c-24 -58 -361 -880 -379 -924 -7 -18 338 -36 604 -32
l231 3 -207 507 c-114 279 -210 510 -213 513 -3 3 -19 -27 -36 -67z"/>
<path d="M3997 5325 c-15 -36 -27 -70 -27 -75 0 -6 177 -10 490 -10 270 0 490
2 490 4 0 2 -11 29 -25 59 -21 49 -29 57 -57 61 -95 14 -355 26 -585 26 l-259
0 -27 -65z"/>
<path d="M6063 5376 c-78 -7 -146 -15 -150 -19 -4 -5 -17 -31 -29 -60 l-22
-52 243 -3 c134 -1 356 -1 493 0 l250 3 -30 73 -31 72 -291 -1 c-160 -1 -355
-7 -433 -13z"/>
<path d="M5330 5186 c0 -2 16 -39 36 -82 l36 -78 34 77 c19 43 34 80 34 82 0
3 -31 5 -70 5 -38 0 -70 -2 -70 -4z"/>
<path d="M4210 4255 c0 -152 5 -319 10 -373 52 -476 270 -778 657 -908 153
-52 243 -65 473 -71 255 -6 372 8 545 66 346 115 555 370 631 766 13 71 18
165 21 443 l5 352 -1171 0 -1171 0 0 -275z"/>
<path d="M3055 5254 l-100 -33 158 -1 c86 0 157 2 157 4 0 5 -105 67 -111 65
-2 0 -49 -16 -104 -35z"/>
<path d="M7583 5254 l-58 -33 160 0 c88 0 156 2 150 5 -5 2 -51 17 -102 33
l-92 28 -58 -33z"/>
</g>
</svg>
